<svg width="285" height="285" viewBox="0 0 285 285" fill="none" xmlns="http://www.w3.org/2000/svg">
<path d="M142.386 15.105C77.3491 15.105 81.3961 43.32 81.3961 43.32V72.561H143.526V81.339H56.7721C56.7721 81.339 15.1621 76.608 15.1621 142.215C15.1621 207.822 51.4711 205.485 51.4711 205.485H73.1311V174.99C73.1311 174.99 71.9911 138.681 108.87 138.681H170.43C170.43 138.681 205.029 139.251 205.029 105.279V49.077C205.029 49.077 210.273 15.105 142.329 15.105H142.386ZM108.072 34.713C114.228 34.713 119.244 39.729 119.244 45.885C119.244 52.041 114.228 57.057 108.072 57.057C101.916 57.057 96.9001 52.041 96.9001 45.885C96.9001 39.729 101.916 34.713 108.072 34.713Z" fill="#18729D"/>
<path d="M144.153 269.895C209.19 269.895 205.143 241.68 205.143 241.68V212.439H143.013V203.661H229.71C229.71 203.661 271.32 208.392 271.32 142.785C271.32 77.178 235.011 79.515 235.011 79.515H213.351V110.01C213.351 110.01 214.491 146.319 177.612 146.319H116.052C116.052 146.319 81.4531 145.749 81.4531 179.721V235.923C81.4531 235.923 76.2091 269.895 144.153 269.895ZM178.353 250.287C172.197 250.287 167.181 245.271 167.181 239.115C167.181 232.959 172.197 227.943 178.353 227.943C184.509 227.943 189.525 232.959 189.525 239.115C189.525 245.271 184.566 250.287 178.353 250.287Z" fill="#18729D"/>
</svg>
